<svg xmlns="http://www.w3.org/2000/svg" xmlns:xlink="http://www.w3.org/1999/xlink" viewBox="0,0,256,256" width="50px" height="50px" fill-rule="nonzero"><g fill="#ffffff" fill-rule="nonzero" stroke="none" stroke-width="1" stroke-linecap="butt" stroke-linejoin="miter" stroke-miterlimit="10" stroke-dasharray="" stroke-dashoffset="0" font-family="none" font-weight="none" font-size="none" text-anchor="none" style="mix-blend-mode: normal"><g transform="scale(5.12,5.12)"><path d="M25,3c-12.15,0 -22,9.85 -22,22c0,12.15 9.85,22 22,22c12.15,0 22,-9.85 22,-22c0,-12.15 -9.85,-22 -22,-22zM25,5c11.028,0 20,8.972 20,20c0,11.028 -8.972,20 -20,20c-11.028,0 -20,-8.972 -20,-20c0,-11.028 8.972,-20 20,-20zM38,18v8h2v-8zM13.79883,21.01367c-0.18697,0.00937 -0.375,0.02864 -0.5625,0.05664c-1.096,0.163 -1.96373,0.70845 -2.55273,1.68945c-0.41,0.681 -0.59916,1.43747 -0.66016,2.23047c-0.063,0.81 -0.004,1.60686 0.25,2.38086c0.391,1.191 1.12864,2.03873 2.30664,2.42773c0.719,0.238 1.46112,0.26053 2.20313,0.14453c1.23,-0.193 2.15766,-0.83905 2.72266,-1.99805c0.37,-0.759 0.48414,-1.57705 0.49414,-2.37305c-0.005,-0.594 -0.06217,-1.13792 -0.20117,-1.66992c-0.342,-1.298 -1.0958,-2.21611 -2.3418,-2.66211c-0.5415,-0.1935 -1.0973,-0.25469 -1.6582,-0.22656zM23.4082,21.01758c-0.6,-0.011 -1.19181,0.03872 -1.75781,0.26172c-0.647,0.255 -1.16517,0.66489 -1.45117,1.33789c-0.214,0.503 -0.24183,1.03236 -0.17383,1.56836c0.06,0.474 0.23266,0.89298 0.59766,1.20898c0.261,0.226 0.54814,0.40949 0.86914,0.52148c0.434,0.152 0.8785,0.27188 1.3125,0.42188c0.241,0.083 0.47413,0.19264 0.70312,0.30664c0.14,0.069 0.21491,0.20533 0.25391,0.36133c0.1,0.407 -0.04373,0.72636 -0.42773,0.94336c-0.287,0.162 -0.59992,0.21352 -0.91992,0.22852c-0.696,0.034 -1.35986,-0.12395 -2.00586,-0.37695c-0.04,-0.016 -0.08105,-0.02992 -0.12305,-0.04492c-0.014,0.029 -0.0223,0.0455 -0.0293,0.0625c-0.225,0.522 -0.37164,1.06481 -0.43164,1.63281c-0.007,0.071 0.01513,0.09905 0.07813,0.12305c0.566,0.213 1.14605,0.36225 1.74805,0.40625c0.697,0.05 1.39227,0.04466 2.07227,-0.15234c0.623,-0.181 1.18591,-0.47256 1.62891,-0.97656c0.511,-0.583 0.68967,-1.27683 0.63867,-2.04883c-0.06,-0.919 -0.47178,-1.59203 -1.30078,-1.95703c-0.312,-0.137 -0.63994,-0.23366 -0.96094,-0.34766c-0.366,-0.131 -0.74166,-0.24048 -1.09766,-0.39648c-0.326,-0.143 -0.44327,-0.49094 -0.32227,-0.83594c0.091,-0.26 0.30401,-0.36478 0.54102,-0.42578c0.451,-0.116 0.90652,-0.09028 1.35352,0.01172c0.356,0.081 0.70436,0.20159 1.06836,0.30859c-0.001,0 0.00477,-0.00858 0.00977,-0.01758c0.239,-0.504 0.37741,-1.0358 0.44141,-1.5918c0.009,-0.08 -0.03794,-0.08847 -0.08594,-0.10547c-0.722,-0.256 -1.46252,-0.41373 -2.22852,-0.42773zM29.07031,21.11328c-0.36638,-0.00013 -0.73066,0.03311 -1.09766,0.09961c-0.002,0.04 -0.00586,0.07342 -0.00586,0.10742c0,1.505 -0.00105,3.01258 0.00195,4.51758c0.001,0.598 0.03545,1.19344 0.18945,1.77344c0.261,0.985 0.78589,1.72684 1.71289,2.08984c0.49,0.192 1.00453,0.2423 1.51953,0.2793c1.194,0.086 2.359,-0.09966 3.5,-0.47266c0.082,-0.027 0.10742,-0.0632 0.10742,-0.1582c-0.003,-2.67 -0.00195,-5.33976 -0.00195,-8.00977v-0.125c-0.735,-0.133 -1.4555,-0.135 -2.1875,0c0,0.054 -0.00095,0.10139 -0.00195,0.15039c0,2.149 0.00091,4.29827 0.00391,6.44727c0,0.107 -0.03,0.14406 -0.125,0.16406c-0.418,0.087 -0.83872,0.11173 -1.26172,0.05273c-0.588,-0.082 -0.97814,-0.42692 -1.11914,-1.04492c-0.07,-0.306 -0.11809,-0.62545 -0.12109,-0.93945c-0.013,-1.559 -0.00877,-3.11873 -0.00977,-4.67773v-0.15234c-0.3695,-0.067 -0.73714,-0.10144 -1.10352,-0.10156zM13.79883,22.86523c0.195,-0.015 0.39394,-0.0057 0.58594,0.0293c0.442,0.079 0.75994,0.34381 0.96094,0.75781c0.2,0.411 0.27941,0.85169 0.31641,1.30469c0.016,0.191 0.01939,0.38281 0.02539,0.50781c-0.008,0.612 -0.04361,1.15387 -0.22461,1.67188c-0.155,0.447 -0.40238,0.81261 -0.85937,0.97461c-0.395,0.14 -0.79541,0.14277 -1.19141,0.00977c-0.355,-0.118 -0.59767,-0.37094 -0.76367,-0.71094c-0.176,-0.361 -0.26183,-0.74653 -0.29883,-1.14453c-0.062,-0.658 -0.06701,-1.31784 0.08399,-1.96484c0.055,-0.236 0.13819,-0.4705 0.24219,-0.6875c0.227,-0.473 0.62205,-0.71005 1.12305,-0.74805zM38,28v2h2v-2z"></path></g></g></svg>