<?xml version="1.0" encoding="UTF-8"?>
<svg xmlns="http://www.w3.org/2000/svg" xmlns:xlink="http://www.w3.org/1999/xlink" width="32px" height="32px" viewBox="0 0 32 32" version="1.1">
<g id="surface1">
<path style=" stroke:none;fill-rule:evenodd;fill:rgb(0.784314%,66.274512%,100%);fill-opacity:1;" d="M 20.710938 20.679688 L 20.710938 7.632812 C 20.710938 6.886719 20.296875 6.472656 19.550781 6.472656 L 17 6.472656 C 16.25 6.472656 15.835938 6.886719 15.835938 7.632812 C 15.835938 7.632812 15.835938 10.480469 15.835938 13.828125 C 15.835938 14.003906 17.519531 14.8125 17.5625 14.984375 C 18.84375 19.992188 17.839844 23.996094 16.628906 24.183594 C 18.613281 24.28125 18.832031 25.234375 17.351562 24.582031 C 17.578125 21.914062 18.460938 21.917969 21 24.484375 C 21.019531 24.507812 21.519531 25.554688 21.550781 25.554688 C 24.402344 25.554688 27.542969 25.554688 27.542969 25.554688 C 28.292969 25.554688 28.703125 25.140625 28.703125 24.394531 L 28.703125 21.839844 C 28.703125 21.09375 28.292969 20.679688 27.542969 20.679688 Z M 20.710938 20.679688 "/>
<path style=" stroke:none;fill-rule:evenodd;fill:rgb(99.607843%,99.607843%,99.607843%);fill-opacity:1;" d="M 10.113281 6.472656 L 3.410156 25.554688 L 8.617188 25.554688 L 9.753906 22.253906 L 15.425781 22.253906 L 16.535156 25.554688 L 21.71875 25.554688 L 15.039062 6.472656 Z M 10.941406 18.023438 L 12.5625 12.738281 L 14.34375 18.023438 Z M 10.941406 18.023438 "/>
</g>
</svg>
