<?xml version="1.0" encoding="UTF-8"?>
<svg xmlns="http://www.w3.org/2000/svg" xmlns:xlink="http://www.w3.org/1999/xlink" width="32px" height="32px" viewBox="0 0 32 32" version="1.1">
<defs>
<filter id="alpha" filterUnits="objectBoundingBox" x="0%" y="0%" width="100%" height="100%">
  <feColorMatrix type="matrix" in="SourceGraphic" values="0 0 0 0 1 0 0 0 0 1 0 0 0 0 1 0 0 0 1 0"/>
</filter>
<mask id="mask0">
  <g filter="url(#alpha)">
<rect x="0" y="0" width="32" height="32" style="fill:rgb(0%,0%,0%);fill-opacity:0.0705882;stroke:none;"/>
  </g>
</mask>
<clipPath id="clip1">
  <rect x="0" y="0" width="32" height="32"/>
</clipPath>
<g id="surface5" clip-path="url(#clip1)">
<path style=" stroke:none;fill-rule:nonzero;fill:rgb(0%,0%,0%);fill-opacity:1;" d="M 1.089844 1.332031 L 30.371094 1.332031 L 30.371094 30.609375 L 1.089844 30.609375 Z M 1.089844 1.332031 "/>
</g>
<mask id="mask1">
  <g filter="url(#alpha)">
<rect x="0" y="0" width="32" height="32" style="fill:rgb(0%,0%,0%);fill-opacity:0.0705882;stroke:none;"/>
  </g>
</mask>
<clipPath id="clip2">
  <rect x="0" y="0" width="32" height="32"/>
</clipPath>
<g id="surface8" clip-path="url(#clip2)">
<path style=" stroke:none;fill-rule:nonzero;fill:rgb(0%,0%,0%);fill-opacity:1;" d="M 2.660156 2.660156 L 29.277344 2.660156 L 29.277344 29.277344 L 2.660156 29.277344 Z M 2.660156 2.660156 "/>
</g>
<mask id="mask2">
  <g filter="url(#alpha)">
<rect x="0" y="0" width="32" height="32" style="fill:rgb(0%,0%,0%);fill-opacity:0.0705882;stroke:none;"/>
  </g>
</mask>
<clipPath id="clip3">
  <rect x="0" y="0" width="32" height="32"/>
</clipPath>
<g id="surface11" clip-path="url(#clip3)">
<path style=" stroke:none;fill-rule:nonzero;fill:rgb(5.490196%,4.313726%,5.490196%);fill-opacity:1;" d="M 3.992188 3.992188 L 27.945312 3.992188 L 27.945312 27.945312 L 3.992188 27.945312 Z M 3.992188 3.992188 "/>
</g>
</defs>
<g id="surface1">
<use xlink:href="#surface5" mask="url(#mask0)"/>
<use xlink:href="#surface8" mask="url(#mask1)"/>
<use xlink:href="#surface11" mask="url(#mask2)"/>
<path style=" stroke:none;fill-rule:nonzero;fill:rgb(87.450981%,30.588236%,66.666669%);fill-opacity:1;" d="M 0 0 L 0 5.324219 L 5.324219 5.324219 L 5.324219 10.648438 L 10.648438 10.648438 L 10.648438 5.324219 L 15.96875 5.324219 L 15.96875 0 Z M 0 0 "/>
<path style=" stroke:none;fill-rule:nonzero;fill:rgb(75.294119%,25.098041%,66.666669%);fill-opacity:1;" d="M 5.324219 10.648438 L 10.648438 10.648438 L 10.648438 31.941406 L 5.324219 31.941406 Z M 5.324219 10.648438 "/>
<path style=" stroke:none;fill-rule:nonzero;fill:rgb(49.411765%,37.254903%,89.019608%);fill-opacity:1;" d="M 10.648438 10.648438 L 15.96875 10.648438 L 15.96875 31.941406 L 10.648438 31.941406 Z M 10.648438 10.648438 "/>
<path style=" stroke:none;fill-rule:nonzero;fill:rgb(18.431373%,31.764707%,66.666669%);fill-opacity:1;" d="M 15.96875 26.617188 L 26.617188 26.617188 L 26.617188 21.292969 L 21.292969 21.292969 L 21.292969 10.648438 L 15.96875 10.648438 Z M 15.96875 26.617188 "/>
<path style=" stroke:none;fill-rule:nonzero;fill:rgb(8.235294%,56.862748%,61.56863%);fill-opacity:1;" d="M 31.941406 5.324219 L 21.292969 5.324219 L 21.292969 10.648438 L 26.617188 10.648438 L 26.617188 21.292969 L 31.941406 21.292969 Z M 31.941406 5.324219 "/>
</g>
</svg>
